<mxfile host="app.diagrams.net" agent="Mozilla/5.0 (Windows NT 10.0; Win64; x64) AppleWebKit/537.36 (KHTML, like Gecko) Chrome/136.0.0.0 Safari/537.36 Edg/136.0.0.0" version="26.2.14">
  <diagram name="第 1 页" id="-FlQ6AyEJ20d0pfmZKjM">
    <mxGraphModel dx="1731" dy="788" grid="0" gridSize="10" guides="1" tooltips="1" connect="1" arrows="1" fold="1" page="0" pageScale="1" pageWidth="827" pageHeight="1169" background="none" math="0" shadow="1">
      <root>
        <mxCell id="0" />
        <mxCell id="1" parent="0" />
        <mxCell id="sZ54RUxfmfb3yY-tl8Xp-23" value="" style="rounded=0;whiteSpace=wrap;html=1;" parent="1" vertex="1">
          <mxGeometry x="-120" y="595" width="1150" height="135" as="geometry" />
        </mxCell>
        <mxCell id="sZ54RUxfmfb3yY-tl8Xp-20" value="" style="rounded=0;whiteSpace=wrap;html=1;" parent="1" vertex="1">
          <mxGeometry x="-120" y="750" width="1150" height="90" as="geometry" />
        </mxCell>
        <mxCell id="sZ54RUxfmfb3yY-tl8Xp-1" value="&lt;b&gt;&lt;font style=&quot;font-size: 33px;&quot;&gt;光明公安智慧化巡逻项目&lt;/font&gt;&lt;/b&gt;" style="text;html=1;strokeColor=none;fillColor=none;align=center;verticalAlign=middle;whiteSpace=wrap;rounded=0;" parent="1" vertex="1">
          <mxGeometry x="124" y="60" width="580" height="30" as="geometry" />
        </mxCell>
        <mxCell id="sZ54RUxfmfb3yY-tl8Xp-39" style="edgeStyle=orthogonalEdgeStyle;rounded=0;orthogonalLoop=1;jettySize=auto;html=1;entryX=0.5;entryY=0;entryDx=0;entryDy=0;" parent="1" source="sZ54RUxfmfb3yY-tl8Xp-2" target="sZ54RUxfmfb3yY-tl8Xp-3" edge="1">
          <mxGeometry relative="1" as="geometry" />
        </mxCell>
        <mxCell id="sZ54RUxfmfb3yY-tl8Xp-40" style="edgeStyle=orthogonalEdgeStyle;rounded=0;orthogonalLoop=1;jettySize=auto;html=1;entryX=0.5;entryY=0;entryDx=0;entryDy=0;" parent="1" source="sZ54RUxfmfb3yY-tl8Xp-2" target="sZ54RUxfmfb3yY-tl8Xp-4" edge="1">
          <mxGeometry relative="1" as="geometry" />
        </mxCell>
        <mxCell id="sZ54RUxfmfb3yY-tl8Xp-2" value="&lt;b&gt;&lt;font style=&quot;font-size: 27px;&quot;&gt;公安方视频仓&lt;br&gt;&lt;/font&gt;&lt;/b&gt;" style="rounded=1;whiteSpace=wrap;html=1;" parent="1" vertex="1">
          <mxGeometry x="170" y="160" width="470" height="70" as="geometry" />
        </mxCell>
        <mxCell id="sZ54RUxfmfb3yY-tl8Xp-45" style="edgeStyle=orthogonalEdgeStyle;rounded=0;orthogonalLoop=1;jettySize=auto;html=1;entryX=0.5;entryY=0;entryDx=0;entryDy=0;shape=link;" parent="1" source="sZ54RUxfmfb3yY-tl8Xp-3" target="sZ54RUxfmfb3yY-tl8Xp-9" edge="1">
          <mxGeometry relative="1" as="geometry" />
        </mxCell>
        <mxCell id="sZ54RUxfmfb3yY-tl8Xp-47" value="&lt;b&gt;&lt;font style=&quot;font-size: 18px;&quot;&gt;推送&lt;/font&gt;&lt;/b&gt;" style="edgeLabel;html=1;align=center;verticalAlign=middle;resizable=0;points=[];" parent="sZ54RUxfmfb3yY-tl8Xp-45" vertex="1" connectable="0">
          <mxGeometry x="0.2951" y="4" relative="1" as="geometry">
            <mxPoint as="offset" />
          </mxGeometry>
        </mxCell>
        <mxCell id="sZ54RUxfmfb3yY-tl8Xp-3" value="&lt;b&gt;&lt;font style=&quot;font-size: 20px;&quot;&gt;市局视综平台&lt;/font&gt;&lt;/b&gt;" style="rounded=1;whiteSpace=wrap;html=1;" parent="1" vertex="1">
          <mxGeometry x="160" y="280" width="150" height="110" as="geometry" />
        </mxCell>
        <mxCell id="sZ54RUxfmfb3yY-tl8Xp-34" value="" style="edgeStyle=orthogonalEdgeStyle;rounded=0;orthogonalLoop=1;jettySize=auto;html=1;" parent="1" source="sZ54RUxfmfb3yY-tl8Xp-4" target="sZ54RUxfmfb3yY-tl8Xp-5" edge="1">
          <mxGeometry relative="1" as="geometry" />
        </mxCell>
        <mxCell id="sZ54RUxfmfb3yY-tl8Xp-41" value="&lt;b&gt;&lt;font style=&quot;font-size: 14px;&quot;&gt;TCP&lt;/font&gt;&lt;/b&gt;" style="edgeLabel;html=1;align=center;verticalAlign=middle;resizable=0;points=[];" parent="sZ54RUxfmfb3yY-tl8Xp-34" vertex="1" connectable="0">
          <mxGeometry x="-0.0965" y="3" relative="1" as="geometry">
            <mxPoint as="offset" />
          </mxGeometry>
        </mxCell>
        <mxCell id="sZ54RUxfmfb3yY-tl8Xp-4" value="&lt;b&gt;&lt;font style=&quot;font-size: 20px;&quot;&gt;华为存储转接平台&lt;/font&gt;&lt;/b&gt;" style="rounded=1;whiteSpace=wrap;html=1;" parent="1" vertex="1">
          <mxGeometry x="520" y="280" width="210" height="40" as="geometry" />
        </mxCell>
        <mxCell id="sZ54RUxfmfb3yY-tl8Xp-35" style="edgeStyle=orthogonalEdgeStyle;rounded=0;orthogonalLoop=1;jettySize=auto;html=1;" parent="1" source="sZ54RUxfmfb3yY-tl8Xp-5" edge="1">
          <mxGeometry relative="1" as="geometry">
            <mxPoint x="590" y="520" as="targetPoint" />
            <Array as="points">
              <mxPoint x="625" y="460" />
              <mxPoint x="590" y="460" />
            </Array>
          </mxGeometry>
        </mxCell>
        <mxCell id="sZ54RUxfmfb3yY-tl8Xp-42" value="&lt;font style=&quot;font-size: 14px;&quot;&gt;TCP&lt;/font&gt;" style="edgeLabel;html=1;align=center;verticalAlign=middle;resizable=0;points=[];" parent="sZ54RUxfmfb3yY-tl8Xp-35" vertex="1" connectable="0">
          <mxGeometry x="0.5653" y="-2" relative="1" as="geometry">
            <mxPoint y="-1" as="offset" />
          </mxGeometry>
        </mxCell>
        <mxCell id="sZ54RUxfmfb3yY-tl8Xp-36" style="edgeStyle=orthogonalEdgeStyle;rounded=0;orthogonalLoop=1;jettySize=auto;html=1;" parent="1" source="sZ54RUxfmfb3yY-tl8Xp-5" edge="1">
          <mxGeometry relative="1" as="geometry">
            <mxPoint x="860" y="520" as="targetPoint" />
            <Array as="points">
              <mxPoint x="625" y="460" />
              <mxPoint x="860" y="460" />
            </Array>
          </mxGeometry>
        </mxCell>
        <mxCell id="sZ54RUxfmfb3yY-tl8Xp-43" value="&lt;font style=&quot;font-size: 14px;&quot;&gt;TCP&lt;/font&gt;" style="edgeLabel;html=1;align=center;verticalAlign=middle;resizable=0;points=[];" parent="sZ54RUxfmfb3yY-tl8Xp-36" vertex="1" connectable="0">
          <mxGeometry x="0.8172" y="4" relative="1" as="geometry">
            <mxPoint as="offset" />
          </mxGeometry>
        </mxCell>
        <mxCell id="sZ54RUxfmfb3yY-tl8Xp-46" style="edgeStyle=orthogonalEdgeStyle;rounded=0;orthogonalLoop=1;jettySize=auto;html=1;exitX=0;exitY=0.5;exitDx=0;exitDy=0;" parent="1" source="sZ54RUxfmfb3yY-tl8Xp-5" edge="1">
          <mxGeometry relative="1" as="geometry">
            <mxPoint x="510" y="389.6470588235295" as="targetPoint" />
          </mxGeometry>
        </mxCell>
        <mxCell id="sZ54RUxfmfb3yY-tl8Xp-5" value="&lt;b&gt;&lt;font style=&quot;font-size: 20px;&quot;&gt;天翼视联平台&lt;/font&gt;&lt;/b&gt;" style="rounded=1;whiteSpace=wrap;html=1;" parent="1" vertex="1">
          <mxGeometry x="520" y="370" width="210" height="40" as="geometry" />
        </mxCell>
        <mxCell id="sZ54RUxfmfb3yY-tl8Xp-28" value="" style="edgeStyle=orthogonalEdgeStyle;rounded=0;orthogonalLoop=1;jettySize=auto;html=1;" parent="1" source="sZ54RUxfmfb3yY-tl8Xp-7" target="sZ54RUxfmfb3yY-tl8Xp-15" edge="1">
          <mxGeometry relative="1" as="geometry" />
        </mxCell>
        <mxCell id="sZ54RUxfmfb3yY-tl8Xp-7" value="&lt;b&gt;&lt;font style=&quot;font-size: 17px;&quot;&gt;电信AI--星河AI平台&lt;/font&gt;&lt;/b&gt;" style="rounded=1;whiteSpace=wrap;html=1;" parent="1" vertex="1">
          <mxGeometry x="770" y="530" width="200" height="40" as="geometry" />
        </mxCell>
        <mxCell id="sZ54RUxfmfb3yY-tl8Xp-27" value="" style="edgeStyle=orthogonalEdgeStyle;rounded=0;orthogonalLoop=1;jettySize=auto;html=1;" parent="1" source="sZ54RUxfmfb3yY-tl8Xp-8" target="sZ54RUxfmfb3yY-tl8Xp-14" edge="1">
          <mxGeometry relative="1" as="geometry" />
        </mxCell>
        <mxCell id="sZ54RUxfmfb3yY-tl8Xp-8" value="&lt;b&gt;&lt;font style=&quot;font-size: 17px;&quot;&gt;宇视--AI平台&lt;/font&gt;&lt;/b&gt;" style="rounded=1;whiteSpace=wrap;html=1;" parent="1" vertex="1">
          <mxGeometry x="490" y="530" width="200" height="40" as="geometry" />
        </mxCell>
        <mxCell id="sZ54RUxfmfb3yY-tl8Xp-26" value="" style="edgeStyle=orthogonalEdgeStyle;rounded=0;orthogonalLoop=1;jettySize=auto;html=1;" parent="1" source="sZ54RUxfmfb3yY-tl8Xp-9" target="sZ54RUxfmfb3yY-tl8Xp-13" edge="1">
          <mxGeometry relative="1" as="geometry" />
        </mxCell>
        <mxCell id="sZ54RUxfmfb3yY-tl8Xp-9" value="&lt;b style=&quot;border-color: var(--border-color);&quot;&gt;&lt;font style=&quot;border-color: var(--border-color); font-size: 17px;&quot;&gt;云天励飞--AI平台&lt;/font&gt;&lt;/b&gt;" style="rounded=1;whiteSpace=wrap;html=1;" parent="1" vertex="1">
          <mxGeometry x="200" y="530" width="200" height="40" as="geometry" />
        </mxCell>
        <mxCell id="sZ54RUxfmfb3yY-tl8Xp-25" style="edgeStyle=orthogonalEdgeStyle;rounded=0;orthogonalLoop=1;jettySize=auto;html=1;entryX=0.5;entryY=0;entryDx=0;entryDy=0;" parent="1" source="sZ54RUxfmfb3yY-tl8Xp-10" target="sZ54RUxfmfb3yY-tl8Xp-11" edge="1">
          <mxGeometry relative="1" as="geometry" />
        </mxCell>
        <mxCell id="sZ54RUxfmfb3yY-tl8Xp-10" value="&lt;b style=&quot;border-color: var(--border-color);&quot;&gt;&lt;font style=&quot;border-color: var(--border-color); font-size: 17px;&quot;&gt;商汤科技--AI平台&lt;/font&gt;&lt;/b&gt;" style="rounded=1;whiteSpace=wrap;html=1;" parent="1" vertex="1">
          <mxGeometry x="-62.5" y="530" width="200" height="40" as="geometry" />
        </mxCell>
        <mxCell id="sZ54RUxfmfb3yY-tl8Xp-30" value="" style="edgeStyle=orthogonalEdgeStyle;rounded=0;orthogonalLoop=1;jettySize=auto;html=1;" parent="1" source="sZ54RUxfmfb3yY-tl8Xp-11" target="sZ54RUxfmfb3yY-tl8Xp-19" edge="1">
          <mxGeometry relative="1" as="geometry" />
        </mxCell>
        <mxCell id="sZ54RUxfmfb3yY-tl8Xp-11" value="&lt;h1&gt;商汤科技&lt;/h1&gt;&lt;p&gt;&lt;font style=&quot;font-size: 16px;&quot;&gt;目前已拿下一期的1200路，后面退出。&lt;/font&gt;&lt;/p&gt;" style="text;html=1;strokeColor=default;fillColor=none;spacing=5;spacingTop=-20;whiteSpace=wrap;overflow=hidden;rounded=0;" parent="1" vertex="1">
          <mxGeometry x="-60" y="620" width="195" height="100" as="geometry" />
        </mxCell>
        <mxCell id="sZ54RUxfmfb3yY-tl8Xp-31" value="" style="edgeStyle=orthogonalEdgeStyle;rounded=0;orthogonalLoop=1;jettySize=auto;html=1;" parent="1" source="sZ54RUxfmfb3yY-tl8Xp-13" target="sZ54RUxfmfb3yY-tl8Xp-16" edge="1">
          <mxGeometry relative="1" as="geometry" />
        </mxCell>
        <mxCell id="sZ54RUxfmfb3yY-tl8Xp-13" value="&lt;h1&gt;云天励飞&lt;/h1&gt;&lt;p&gt;&lt;font style=&quot;font-size: 16px;&quot;&gt;已对接市局视综平台，推送告警，已增流至5420路&lt;/font&gt;&lt;/p&gt;" style="text;html=1;strokeColor=default;fillColor=none;spacing=5;spacingTop=-20;whiteSpace=wrap;overflow=hidden;rounded=0;" parent="1" vertex="1">
          <mxGeometry x="191.44" y="621.5" width="217.12" height="97" as="geometry" />
        </mxCell>
        <mxCell id="sZ54RUxfmfb3yY-tl8Xp-32" value="" style="edgeStyle=orthogonalEdgeStyle;rounded=0;orthogonalLoop=1;jettySize=auto;html=1;" parent="1" source="sZ54RUxfmfb3yY-tl8Xp-14" target="sZ54RUxfmfb3yY-tl8Xp-17" edge="1">
          <mxGeometry relative="1" as="geometry" />
        </mxCell>
        <mxCell id="sZ54RUxfmfb3yY-tl8Xp-14" value="&lt;h1&gt;宇视&lt;/h1&gt;&lt;p&gt;&lt;font style=&quot;font-size: 16px;&quot;&gt;目前取流于天翼视联平台，取流100路&lt;/font&gt;&lt;/p&gt;" style="text;html=1;strokeColor=default;fillColor=none;spacing=5;spacingTop=-20;whiteSpace=wrap;overflow=hidden;rounded=0;" parent="1" vertex="1">
          <mxGeometry x="495" y="630" width="190" height="90" as="geometry" />
        </mxCell>
        <mxCell id="sZ54RUxfmfb3yY-tl8Xp-33" value="" style="edgeStyle=orthogonalEdgeStyle;rounded=0;orthogonalLoop=1;jettySize=auto;html=1;" parent="1" source="sZ54RUxfmfb3yY-tl8Xp-15" target="sZ54RUxfmfb3yY-tl8Xp-18" edge="1">
          <mxGeometry relative="1" as="geometry" />
        </mxCell>
        <mxCell id="sZ54RUxfmfb3yY-tl8Xp-15" value="&lt;h1&gt;电信AI&lt;/h1&gt;&lt;p&gt;&lt;font style=&quot;font-size: 16px;&quot;&gt;目前取流于天翼视联平台，取流680路&lt;/font&gt;&lt;/p&gt;" style="text;html=1;strokeColor=default;fillColor=none;spacing=5;spacingTop=-20;whiteSpace=wrap;overflow=hidden;rounded=0;" parent="1" vertex="1">
          <mxGeometry x="775" y="630" width="190" height="90" as="geometry" />
        </mxCell>
        <mxCell id="sZ54RUxfmfb3yY-tl8Xp-16" value="&lt;font style=&quot;font-size: 16px;&quot;&gt;&lt;b&gt;376张T4&lt;/b&gt;&lt;/font&gt;" style="rounded=1;whiteSpace=wrap;html=1;" parent="1" vertex="1">
          <mxGeometry x="222.5" y="780" width="155" height="40" as="geometry" />
        </mxCell>
        <mxCell id="sZ54RUxfmfb3yY-tl8Xp-17" value="&lt;span style=&quot;font-size: 16px;&quot;&gt;&lt;b&gt;8张T4&lt;/b&gt;&lt;/span&gt;" style="rounded=1;whiteSpace=wrap;html=1;" parent="1" vertex="1">
          <mxGeometry x="512.5" y="775" width="155" height="40" as="geometry" />
        </mxCell>
        <mxCell id="sZ54RUxfmfb3yY-tl8Xp-18" value="&lt;font style=&quot;font-size: 16px;&quot;&gt;&lt;b&gt;42张A10&lt;/b&gt;&lt;/font&gt;" style="rounded=1;whiteSpace=wrap;html=1;" parent="1" vertex="1">
          <mxGeometry x="792.5" y="780" width="155" height="40" as="geometry" />
        </mxCell>
        <mxCell id="sZ54RUxfmfb3yY-tl8Xp-19" value="&lt;font style=&quot;font-size: 16px;&quot;&gt;&lt;b&gt;92张T4，24张300V&lt;/b&gt;&lt;/font&gt;" style="rounded=1;whiteSpace=wrap;html=1;" parent="1" vertex="1">
          <mxGeometry x="-40" y="775" width="155" height="40" as="geometry" />
        </mxCell>
        <mxCell id="sZ54RUxfmfb3yY-tl8Xp-21" value="&lt;b&gt;&lt;font style=&quot;font-size: 19px;&quot;&gt;算力配置情况&lt;/font&gt;&lt;/b&gt;" style="text;html=1;strokeColor=none;fillColor=none;align=center;verticalAlign=middle;whiteSpace=wrap;rounded=0;" parent="1" vertex="1">
          <mxGeometry x="-250" y="760" width="90" height="80" as="geometry" />
        </mxCell>
        <mxCell id="sZ54RUxfmfb3yY-tl8Xp-22" value="&lt;b&gt;&lt;font style=&quot;font-size: 19px;&quot;&gt;目前进展情况&lt;/font&gt;&lt;/b&gt;" style="text;html=1;strokeColor=none;fillColor=none;align=center;verticalAlign=middle;whiteSpace=wrap;rounded=0;" parent="1" vertex="1">
          <mxGeometry x="-250" y="610" width="90" height="80" as="geometry" />
        </mxCell>
        <mxCell id="9VAvsyy-LS5YoOSh_LqK-45" value="" style="edgeStyle=orthogonalEdgeStyle;rounded=0;orthogonalLoop=1;jettySize=auto;html=1;" parent="1" source="9VAvsyy-LS5YoOSh_LqK-47" target="9VAvsyy-LS5YoOSh_LqK-53" edge="1">
          <mxGeometry relative="1" as="geometry" />
        </mxCell>
        <mxCell id="9VAvsyy-LS5YoOSh_LqK-46" value="&lt;b&gt;&lt;font style=&quot;font-size: 14px;&quot;&gt;TCP&lt;/font&gt;&lt;/b&gt;" style="edgeLabel;html=1;align=center;verticalAlign=middle;resizable=0;points=[];" parent="9VAvsyy-LS5YoOSh_LqK-45" vertex="1" connectable="0">
          <mxGeometry x="-0.0965" y="3" relative="1" as="geometry">
            <mxPoint as="offset" />
          </mxGeometry>
        </mxCell>
        <mxCell id="9VAvsyy-LS5YoOSh_LqK-47" value="&lt;b&gt;&lt;font style=&quot;font-size: 20px;&quot;&gt;华为存储转接平台&lt;/font&gt;&lt;/b&gt;" style="rounded=1;whiteSpace=wrap;html=1;" parent="1" vertex="1">
          <mxGeometry x="181" y="1243" width="210" height="40" as="geometry" />
        </mxCell>
        <mxCell id="9VAvsyy-LS5YoOSh_LqK-50" style="edgeStyle=orthogonalEdgeStyle;rounded=0;orthogonalLoop=1;jettySize=auto;html=1;" parent="1" source="9VAvsyy-LS5YoOSh_LqK-53" edge="1">
          <mxGeometry relative="1" as="geometry">
            <mxPoint x="286" y="1491" as="targetPoint" />
            <Array as="points">
              <mxPoint x="286" y="1483" />
            </Array>
          </mxGeometry>
        </mxCell>
        <mxCell id="9VAvsyy-LS5YoOSh_LqK-51" value="&lt;font style=&quot;font-size: 14px;&quot;&gt;TCP&lt;/font&gt;" style="edgeLabel;html=1;align=center;verticalAlign=middle;resizable=0;points=[];" parent="9VAvsyy-LS5YoOSh_LqK-50" vertex="1" connectable="0">
          <mxGeometry x="0.8172" y="4" relative="1" as="geometry">
            <mxPoint y="-31" as="offset" />
          </mxGeometry>
        </mxCell>
        <mxCell id="9VAvsyy-LS5YoOSh_LqK-53" value="&lt;b&gt;&lt;font style=&quot;font-size: 20px;&quot;&gt;天翼视联平台&lt;/font&gt;&lt;/b&gt;" style="rounded=1;whiteSpace=wrap;html=1;" parent="1" vertex="1">
          <mxGeometry x="181" y="1366" width="210" height="40" as="geometry" />
        </mxCell>
        <mxCell id="9VAvsyy-LS5YoOSh_LqK-57" value="" style="edgeStyle=orthogonalEdgeStyle;rounded=0;orthogonalLoop=1;jettySize=auto;html=1;" parent="1" source="9VAvsyy-LS5YoOSh_LqK-54" target="9VAvsyy-LS5YoOSh_LqK-56" edge="1">
          <mxGeometry relative="1" as="geometry" />
        </mxCell>
        <mxCell id="9VAvsyy-LS5YoOSh_LqK-54" value="&lt;b&gt;&lt;font style=&quot;font-size: 17px;&quot;&gt;电信AI--星河AI平台(运营管理平台)&lt;/font&gt;&lt;/b&gt;" style="rounded=1;whiteSpace=wrap;html=1;" parent="1" vertex="1">
          <mxGeometry x="146" y="1489" width="280" height="89" as="geometry" />
        </mxCell>
        <mxCell id="9VAvsyy-LS5YoOSh_LqK-67" value="" style="edgeStyle=orthogonalEdgeStyle;rounded=0;orthogonalLoop=1;jettySize=auto;html=1;" parent="1" source="9VAvsyy-LS5YoOSh_LqK-56" target="9VAvsyy-LS5YoOSh_LqK-66" edge="1">
          <mxGeometry relative="1" as="geometry" />
        </mxCell>
        <mxCell id="9VAvsyy-LS5YoOSh_LqK-56" value="&lt;span style=&quot;font-size: 17px;&quot;&gt;&lt;b&gt;星河AI平台（摄像头数据更新）&lt;/b&gt;&lt;/span&gt;" style="rounded=1;whiteSpace=wrap;html=1;" parent="1" vertex="1">
          <mxGeometry x="146" y="1658" width="280" height="89" as="geometry" />
        </mxCell>
        <mxCell id="9VAvsyy-LS5YoOSh_LqK-61" value="" style="edgeStyle=orthogonalEdgeStyle;rounded=0;orthogonalLoop=1;jettySize=auto;html=1;" parent="1" source="9VAvsyy-LS5YoOSh_LqK-60" target="9VAvsyy-LS5YoOSh_LqK-56" edge="1">
          <mxGeometry relative="1" as="geometry" />
        </mxCell>
        <mxCell id="9VAvsyy-LS5YoOSh_LqK-63" value="" style="edgeStyle=orthogonalEdgeStyle;rounded=0;orthogonalLoop=1;jettySize=auto;html=1;" parent="1" source="9VAvsyy-LS5YoOSh_LqK-60" target="9VAvsyy-LS5YoOSh_LqK-62" edge="1">
          <mxGeometry relative="1" as="geometry" />
        </mxCell>
        <mxCell id="9VAvsyy-LS5YoOSh_LqK-60" value="&lt;span style=&quot;font-size: 17px;&quot;&gt;&lt;b&gt;标签管理（设定标签管理摄像头）&lt;/b&gt;&lt;/span&gt;" style="rounded=1;whiteSpace=wrap;html=1;" parent="1" vertex="1">
          <mxGeometry x="505" y="1661" width="256" height="83" as="geometry" />
        </mxCell>
        <mxCell id="9VAvsyy-LS5YoOSh_LqK-65" value="" style="edgeStyle=orthogonalEdgeStyle;rounded=0;orthogonalLoop=1;jettySize=auto;html=1;" parent="1" source="9VAvsyy-LS5YoOSh_LqK-62" target="9VAvsyy-LS5YoOSh_LqK-64" edge="1">
          <mxGeometry relative="1" as="geometry" />
        </mxCell>
        <mxCell id="9VAvsyy-LS5YoOSh_LqK-62" value="&lt;span style=&quot;font-size: 17px;&quot;&gt;&lt;b&gt;设定场景任务（添加相应标签）&lt;/b&gt;&lt;/span&gt;" style="rounded=1;whiteSpace=wrap;html=1;" parent="1" vertex="1">
          <mxGeometry x="505" y="1824" width="256" height="83" as="geometry" />
        </mxCell>
        <mxCell id="9VAvsyy-LS5YoOSh_LqK-68" value="" style="edgeStyle=orthogonalEdgeStyle;rounded=0;orthogonalLoop=1;jettySize=auto;html=1;" parent="1" source="9VAvsyy-LS5YoOSh_LqK-64" target="9VAvsyy-LS5YoOSh_LqK-66" edge="1">
          <mxGeometry relative="1" as="geometry" />
        </mxCell>
        <mxCell id="9VAvsyy-LS5YoOSh_LqK-64" value="&lt;span style=&quot;font-size: 17px;&quot;&gt;&lt;b&gt;设定告警间隔&lt;/b&gt;&lt;/span&gt;" style="rounded=1;whiteSpace=wrap;html=1;" parent="1" vertex="1">
          <mxGeometry x="505" y="2003" width="256" height="83" as="geometry" />
        </mxCell>
        <mxCell id="9VAvsyy-LS5YoOSh_LqK-66" value="&lt;span style=&quot;font-size: 17px;&quot;&gt;&lt;b&gt;告警数据产出&lt;/b&gt;&lt;/span&gt;" style="rounded=1;whiteSpace=wrap;html=1;" parent="1" vertex="1">
          <mxGeometry x="146" y="2000" width="280" height="89" as="geometry" />
        </mxCell>
        <mxCell id="dSR3jNI2SDN-VHp2QSge-4" value="" style="edgeStyle=orthogonalEdgeStyle;rounded=0;orthogonalLoop=1;jettySize=auto;html=1;" edge="1" parent="1" source="dSR3jNI2SDN-VHp2QSge-1" target="dSR3jNI2SDN-VHp2QSge-3">
          <mxGeometry relative="1" as="geometry" />
        </mxCell>
        <mxCell id="dSR3jNI2SDN-VHp2QSge-5" value="HTTP/WebSocket" style="edgeLabel;html=1;align=center;verticalAlign=middle;resizable=0;points=[];" vertex="1" connectable="0" parent="dSR3jNI2SDN-VHp2QSge-4">
          <mxGeometry x="-0.225" y="2" relative="1" as="geometry">
            <mxPoint as="offset" />
          </mxGeometry>
        </mxCell>
        <mxCell id="dSR3jNI2SDN-VHp2QSge-1" value="星火-视综平台" style="rounded=1;whiteSpace=wrap;html=1;" vertex="1" parent="1">
          <mxGeometry x="348" y="2359" width="120" height="60" as="geometry" />
        </mxCell>
        <mxCell id="dSR3jNI2SDN-VHp2QSge-21" style="edgeStyle=orthogonalEdgeStyle;rounded=0;orthogonalLoop=1;jettySize=auto;html=1;entryX=0.5;entryY=0;entryDx=0;entryDy=0;curved=1;" edge="1" parent="1" source="dSR3jNI2SDN-VHp2QSge-3" target="dSR3jNI2SDN-VHp2QSge-7">
          <mxGeometry relative="1" as="geometry" />
        </mxCell>
        <mxCell id="dSR3jNI2SDN-VHp2QSge-38" style="edgeStyle=orthogonalEdgeStyle;rounded=0;orthogonalLoop=1;jettySize=auto;html=1;curved=1;" edge="1" parent="1" source="dSR3jNI2SDN-VHp2QSge-3" target="dSR3jNI2SDN-VHp2QSge-17">
          <mxGeometry relative="1" as="geometry" />
        </mxCell>
        <mxCell id="dSR3jNI2SDN-VHp2QSge-39" style="edgeStyle=orthogonalEdgeStyle;rounded=0;orthogonalLoop=1;jettySize=auto;html=1;entryX=0.5;entryY=0;entryDx=0;entryDy=0;curved=1;" edge="1" parent="1" source="dSR3jNI2SDN-VHp2QSge-3" target="dSR3jNI2SDN-VHp2QSge-9">
          <mxGeometry relative="1" as="geometry" />
        </mxCell>
        <mxCell id="dSR3jNI2SDN-VHp2QSge-3" value="API Gateway" style="whiteSpace=wrap;html=1;rounded=1;" vertex="1" parent="1">
          <mxGeometry x="348" y="2477" width="116" height="59" as="geometry" />
        </mxCell>
        <mxCell id="dSR3jNI2SDN-VHp2QSge-23" value="" style="edgeStyle=orthogonalEdgeStyle;rounded=0;orthogonalLoop=1;jettySize=auto;html=1;" edge="1" parent="1" source="dSR3jNI2SDN-VHp2QSge-7" target="dSR3jNI2SDN-VHp2QSge-22">
          <mxGeometry relative="1" as="geometry" />
        </mxCell>
        <mxCell id="dSR3jNI2SDN-VHp2QSge-24" value="" style="edgeStyle=orthogonalEdgeStyle;rounded=0;orthogonalLoop=1;jettySize=auto;html=1;" edge="1" parent="1" source="dSR3jNI2SDN-VHp2QSge-7" target="dSR3jNI2SDN-VHp2QSge-22">
          <mxGeometry relative="1" as="geometry" />
        </mxCell>
        <mxCell id="dSR3jNI2SDN-VHp2QSge-26" style="edgeStyle=orthogonalEdgeStyle;rounded=0;orthogonalLoop=1;jettySize=auto;html=1;entryX=0.5;entryY=0;entryDx=0;entryDy=0;" edge="1" parent="1" source="dSR3jNI2SDN-VHp2QSge-7" target="dSR3jNI2SDN-VHp2QSge-25">
          <mxGeometry relative="1" as="geometry" />
        </mxCell>
        <mxCell id="dSR3jNI2SDN-VHp2QSge-7" value="通知服务" style="whiteSpace=wrap;html=1;rounded=1;" vertex="1" parent="1">
          <mxGeometry x="32" y="2688" width="120" height="60" as="geometry" />
        </mxCell>
        <mxCell id="dSR3jNI2SDN-VHp2QSge-28" value="" style="edgeStyle=orthogonalEdgeStyle;rounded=0;orthogonalLoop=1;jettySize=auto;html=1;" edge="1" parent="1" source="dSR3jNI2SDN-VHp2QSge-9" target="dSR3jNI2SDN-VHp2QSge-27">
          <mxGeometry relative="1" as="geometry" />
        </mxCell>
        <mxCell id="dSR3jNI2SDN-VHp2QSge-33" style="edgeStyle=orthogonalEdgeStyle;rounded=0;orthogonalLoop=1;jettySize=auto;html=1;" edge="1" parent="1" source="dSR3jNI2SDN-VHp2QSge-9" target="dSR3jNI2SDN-VHp2QSge-31">
          <mxGeometry relative="1" as="geometry" />
        </mxCell>
        <mxCell id="dSR3jNI2SDN-VHp2QSge-9" value="订阅服务" style="whiteSpace=wrap;html=1;rounded=1;" vertex="1" parent="1">
          <mxGeometry x="257.5" y="2691" width="120" height="60" as="geometry" />
        </mxCell>
        <mxCell id="dSR3jNI2SDN-VHp2QSge-46" value="" style="edgeStyle=orthogonalEdgeStyle;rounded=0;orthogonalLoop=1;jettySize=auto;html=1;" edge="1" parent="1" source="dSR3jNI2SDN-VHp2QSge-14" target="dSR3jNI2SDN-VHp2QSge-45">
          <mxGeometry relative="1" as="geometry" />
        </mxCell>
        <mxCell id="dSR3jNI2SDN-VHp2QSge-47" value="登录/保活" style="edgeLabel;html=1;align=center;verticalAlign=middle;resizable=0;points=[];" vertex="1" connectable="0" parent="dSR3jNI2SDN-VHp2QSge-46">
          <mxGeometry x="-0.071" y="1" relative="1" as="geometry">
            <mxPoint as="offset" />
          </mxGeometry>
        </mxCell>
        <mxCell id="dSR3jNI2SDN-VHp2QSge-14" value="认证服务" style="whiteSpace=wrap;html=1;rounded=1;" vertex="1" parent="1">
          <mxGeometry x="704" y="2691" width="120" height="60" as="geometry" />
        </mxCell>
        <mxCell id="dSR3jNI2SDN-VHp2QSge-37" value="" style="edgeStyle=orthogonalEdgeStyle;rounded=0;orthogonalLoop=1;jettySize=auto;html=1;" edge="1" parent="1" source="dSR3jNI2SDN-VHp2QSge-17" target="dSR3jNI2SDN-VHp2QSge-36">
          <mxGeometry relative="1" as="geometry" />
        </mxCell>
        <mxCell id="dSR3jNI2SDN-VHp2QSge-42" style="edgeStyle=orthogonalEdgeStyle;rounded=0;orthogonalLoop=1;jettySize=auto;html=1;entryX=0.5;entryY=0;entryDx=0;entryDy=0;" edge="1" parent="1" source="dSR3jNI2SDN-VHp2QSge-17" target="dSR3jNI2SDN-VHp2QSge-40">
          <mxGeometry relative="1" as="geometry" />
        </mxCell>
        <mxCell id="dSR3jNI2SDN-VHp2QSge-44" style="edgeStyle=orthogonalEdgeStyle;rounded=0;orthogonalLoop=1;jettySize=auto;html=1;" edge="1" parent="1" source="dSR3jNI2SDN-VHp2QSge-17" target="dSR3jNI2SDN-VHp2QSge-41">
          <mxGeometry relative="1" as="geometry" />
        </mxCell>
        <mxCell id="dSR3jNI2SDN-VHp2QSge-17" value="任务管理" style="whiteSpace=wrap;html=1;rounded=1;" vertex="1" parent="1">
          <mxGeometry x="509" y="2691" width="120" height="60" as="geometry" />
        </mxCell>
        <mxCell id="dSR3jNI2SDN-VHp2QSge-20" style="edgeStyle=orthogonalEdgeStyle;rounded=0;orthogonalLoop=1;jettySize=auto;html=1;entryX=0.425;entryY=0.017;entryDx=0;entryDy=0;entryPerimeter=0;curved=1;" edge="1" parent="1" source="dSR3jNI2SDN-VHp2QSge-3" target="dSR3jNI2SDN-VHp2QSge-14">
          <mxGeometry relative="1" as="geometry" />
        </mxCell>
        <mxCell id="dSR3jNI2SDN-VHp2QSge-35" value="" style="edgeStyle=orthogonalEdgeStyle;rounded=0;orthogonalLoop=1;jettySize=auto;html=1;" edge="1" parent="1" source="dSR3jNI2SDN-VHp2QSge-22" target="dSR3jNI2SDN-VHp2QSge-34">
          <mxGeometry relative="1" as="geometry" />
        </mxCell>
        <mxCell id="dSR3jNI2SDN-VHp2QSge-22" value="订阅通知" style="whiteSpace=wrap;html=1;rounded=1;" vertex="1" parent="1">
          <mxGeometry x="-60" y="2833" width="114" height="34" as="geometry" />
        </mxCell>
        <mxCell id="dSR3jNI2SDN-VHp2QSge-25" value="通知查询，删除" style="whiteSpace=wrap;html=1;rounded=1;" vertex="1" parent="1">
          <mxGeometry x="84" y="2833" width="102" height="35" as="geometry" />
        </mxCell>
        <mxCell id="dSR3jNI2SDN-VHp2QSge-27" value="通知推送" style="whiteSpace=wrap;html=1;rounded=1;" vertex="1" parent="1">
          <mxGeometry x="215" y="2831" width="100" height="35" as="geometry" />
        </mxCell>
        <mxCell id="dSR3jNI2SDN-VHp2QSge-31" value="订阅管理" style="whiteSpace=wrap;html=1;rounded=1;" vertex="1" parent="1">
          <mxGeometry x="344" y="2831" width="96" height="35" as="geometry" />
        </mxCell>
        <mxCell id="dSR3jNI2SDN-VHp2QSge-34" value="智能解析，视频流状态反馈，轮巡任务状态" style="whiteSpace=wrap;html=1;rounded=1;" vertex="1" parent="1">
          <mxGeometry x="-63" y="2923" width="120" height="60" as="geometry" />
        </mxCell>
        <mxCell id="dSR3jNI2SDN-VHp2QSge-36" value="设备流管理" style="whiteSpace=wrap;html=1;rounded=1;" vertex="1" parent="1">
          <mxGeometry x="453" y="2832.5" width="75" height="33.5" as="geometry" />
        </mxCell>
        <mxCell id="dSR3jNI2SDN-VHp2QSge-40" value="轮巡模式" style="whiteSpace=wrap;html=1;rounded=1;" vertex="1" parent="1">
          <mxGeometry x="534" y="2832.5" width="70" height="35.5" as="geometry" />
        </mxCell>
        <mxCell id="dSR3jNI2SDN-VHp2QSge-41" value="任务增删改查" style="whiteSpace=wrap;html=1;rounded=1;" vertex="1" parent="1">
          <mxGeometry x="613" y="2832.5" width="75" height="36.5" as="geometry" />
        </mxCell>
        <mxCell id="dSR3jNI2SDN-VHp2QSge-45" value="注册/注销" style="whiteSpace=wrap;html=1;rounded=1;" vertex="1" parent="1">
          <mxGeometry x="701" y="2834.25" width="118" height="35" as="geometry" />
        </mxCell>
      </root>
    </mxGraphModel>
  </diagram>
</mxfile>
